Coordinates
version=1
nRows=28
nColumns=34
inDegrees=no

Units are S.I. units (second, meters, Newtons, ...)
If the header above contains a line with 'inDegrees', this indicates whether rotational values are in degrees (yes) or radians (no).

endheader
time	pelvis_tilt	pelvis_list	pelvis_rotation	pelvis_tx	pelvis_ty	pelvis_tz	hip_flexion_r	hip_adduction_r	hip_rotation_r	knee_angle_r	ankle_angle_r	subtalar_angle_r	mtp_angle_r	hip_flexion_l	hip_adduction_l	hip_rotation_l	knee_angle_l	ankle_angle_l	subtalar_angle_l	mtp_angle_l	lumbar_extension	lumbar_bending	lumbar_rotation	arm_flex_r	arm_add_r	arm_rot_r	elbow_flex_r	pro_sup_r	arm_flex_l	arm_add_l	arm_rot_l	elbow_flex_l	pro_sup_l
1.83	-0.279193	-0.111959	-0.0294599	-0.166116	0.960269	-0.63374	0.580568	-0.146376	-0.198322	0.494951	-0.259748	0.0432304	-0.114365	0.664142	-0.288674	-0.085857	0.704476	-0.21263	-0.125732	-0.107116	-0.0193126	0.087011	0.0559603	0.642612	-0.604077	0.212266	2.13971	1.44174	0.677348	-0.827348	0.443636	2.37294	1.87508
1.84	-0.251793	-0.102342	-0.03412	-0.158791	0.98656	-0.635513	0.487355	-0.144882	-0.235007	0.367305	-0.366464	0.0831383	-0.114454	0.56347	-0.283809	-0.168256	0.581931	-0.321617	-0.0820759	-0.107018	-0.0194636	0.075417	0.0585885	0.565978	-0.595352	0.216338	2.07329	1.45845	0.589742	-0.794573	0.435354	2.31916	1.87602
1.85	-0.220822	-0.091683	-0.0385771	-0.152108	1.01263	-0.637169	0.395661	-0.146029	-0.277003	0.250306	-0.461845	0.120252	-0.114544	0.46237	-0.275933	-0.257709	0.462356	-0.428204	-0.0327916	-0.106919	-0.0273759	0.0619233	0.0626077	0.494739	-0.582949	0.214043	2.00191	1.47196	0.50966	-0.756658	0.422456	2.25894	1.87708
1.86	-0.18712	-0.080287	-0.0425907	-0.146277	1.03802	-0.638739	0.309365	-0.150258	-0.320784	0.151552	-0.53961	0.150948	-0.114634	0.365049	-0.265519	-0.348815	0.352413	-0.525568	0.017591	-0.106821	-0.0430397	0.0468837	0.0676608	0.430694	-0.567408	0.205196	1.92794	1.48235	0.439822	-0.715148	0.405783	2.19493	1.8782
1.87	-0.15198	-0.0686997	-0.0459646	-0.141552	1.06233	-0.640241	0.232285	-0.157571	-0.361507	0.0772201	-0.596186	0.172364	-0.114724	0.276051	-0.253642	-0.43468	0.258648	-0.60762	0.0640301	-0.106723	-0.0658526	0.0309723	0.0733378	0.375105	-0.54947	0.190106	1.85381	1.48993	0.381906	-0.671666	0.386311	2.13004	1.87933
1.88	-0.117053	-0.057678	-0.0485721	-0.138166	1.08539	-0.641725	0.167683	-0.167441	-0.393869	0.0309782	-0.631352	0.183126	-0.114814	0.199663	-0.241906	-0.508053	0.186341	-0.670458	0.102036	-0.106625	-0.0946182	0.0151491	0.0792193	0.328633	-0.529995	0.169604	1.78174	1.49527	0.33648	-0.627764	0.365085	2.06712	1.88043
1.89	-0.084164	-0.0480719	-0.0503662	-0.136278	1.10716	-0.643252	0.117889	-0.178847	-0.413197	0.0134763	-0.647716	0.183712	-0.114904	0.139287	-0.232173	-0.562889	0.138498	-0.713237	0.128684	-0.106527	-0.127647	0.000542924	0.0849144	0.291346	-0.509884	0.145022	1.71353	1.49899	0.303082	-0.584814	0.34317	2.00869	1.88148
1.9	-0.0550706	-0.0406446	-0.051349	-0.135938	1.12748	-0.644812	0.0840723	-0.190476	-0.41651	0.0224989	-0.649498	0.176348	-0.114994	0.0969932	-0.226132	-0.595706	0.115366	-0.737964	0.143155	-0.106429	-0.162948	-0.0117388	0.0900684	0.262776	-0.489991	0.118074	1.65044	1.50163	0.280417	-0.543948	0.321602	1.95674	1.88247
1.91	-0.031262	-0.0359142	-0.0515109	-0.137067	1.14625	-0.646408	0.0661533	-0.201007	-0.403264	0.0534368	-0.641329	0.164454	-0.115084	0.0733493	-0.224903	-0.606174	0.114548	-0.748409	0.146586	-0.106331	-0.198435	-0.0208172	0.0943414	0.241998	-0.471058	0.0906639	1.59319	1.5035	0.266651	-0.506028	0.301358	1.91257	1.8834
1.92	-0.0137563	-0.0340894	-0.0507763	-0.139451	1.16347	-0.648065	0.062814	-0.209366	-0.375576	0.0999079	-0.627452	0.151832	-0.115174	0.0674704	-0.228808	-0.596927	0.131553	-0.748837	0.141395	-0.106234	-0.23214	-0.026181	0.0973939	0.227718	-0.453664	0.0646131	1.542	1.50483	0.259709	-0.471644	0.283322	1.87676	1.88428
1.93	-0.00303023	-0.035062	-0.0489885	-0.142769	1.17912	-0.649821	0.0716864	-0.214881	-0.337809	0.154547	-0.611266	0.141756	-0.115264	0.0772727	-0.237382	-0.572806	0.160567	-0.743091	0.130372	-0.106136	-0.262347	-0.0277064	0.0989082	0.21835	-0.438206	0.0414145	1.49673	1.50592	0.257539	-0.441125	0.268243	1.84917	1.88514
1.94	0.000907385	-0.0384705	-0.0459692	-0.146667	1.19318	-0.651699	0.0897462	-0.217332	-0.295665	0.209897	-0.595131	0.13625	-0.115355	0.0998765	-0.249567	-0.539897	0.195335	-0.734088	0.115949	-0.106039	-0.287633	-0.0256038	0.0986531	0.212138	-0.42489	0.0220681	1.45707	1.50724	0.258277	-0.414553	0.256665	1.82906	1.88598
1.95	-0.00160249	-0.0437922	-0.0415962	-0.15081	1.20569	-0.653705	0.113779	-0.216913	-0.25511	0.25926	-0.580351	0.135724	-0.115445	0.132057	-0.263989	-0.504556	0.230022	-0.723656	0.0998399	-0.105942	-0.306901	-0.0203361	0.0965321	0.207302	-0.413751	0.00703721	1.42263	1.50922	0.260347	-0.391812	0.248848	1.81527	1.88681
1.96	-0.00995344	-0.0504303	-0.0358418	-0.154904	1.21668	-0.655828	0.14077	-0.21414	-0.221481	0.297403	-0.567296	0.139087	-0.115535	0.170642	-0.279235	-0.472481	0.259939	-0.712622	0.0830213	-0.105845	-0.31946	-0.0125271	0.0925748	0.20223	-0.404681	-0.00369175	1.39308	1.51213	0.262521	-0.372647	0.244705	1.80642	1.88764
1.97	-0.0233746	-0.0578559	-0.0287793	-0.158742	1.22622	-0.65804	0.168122	-0.209747	-0.198867	0.321015	-0.555641	0.144212	-0.115626	0.212735	-0.294026	-0.447966	0.282004	-0.701108	0.0659412	-0.105748	-0.325185	-0.00291019	0.0868943	0.195656	-0.397465	-0.0104899	1.36815	1.51587	0.263946	-0.356754	0.243781	1.80112	1.88848
1.98	-0.04073	-0.0655146	-0.0205812	-0.162196	1.2344	-0.660308	0.193793	-0.204529	-0.189748	0.328882	-0.544707	0.148565	-0.115716	0.255825	-0.307354	-0.433468	0.294843	-0.688925	0.0488232	-0.105651	-0.324572	0.00776242	0.079683	0.186783	-0.391819	-0.0139586	1.34765	1.5199	0.26415	-0.343849	0.245315	1.79815	1.88933
1.99	-0.0606003	-0.0728823	-0.0115424	-0.165231	1.24135	-0.662602	0.216275	-0.19925	-0.19484	0.321797	-0.533802	0.149854	-0.115806	0.297702	-0.318502	-0.429535	0.298621	-0.675928	0.0319522	-0.105555	-0.318821	0.0187132	0.0712241	0.175318	-0.387418	-0.0148317	1.33147	1.52342	0.26302	-0.333714	0.248351	1.79655	1.89018
2	-0.0813487	-0.0794815	-0.0020781	-0.167875	1.24718	-0.664891	0.234573	-0.194566	-0.213154	0.302212	-0.522475	0.146549	-0.115897	0.336417	-0.327044	-0.435015	0.294669	-0.662239	0.0158294	-0.105458	-0.309727	0.0291625	0.0619031	0.161425	-0.383925	-0.0139103	1.31951	1.52574	0.260739	-0.326191	0.251893	1.79569	1.89105
2.01	-0.101294	-0.0849109	0.00731577	-0.170169	1.25204	-0.66716	0.248181	-0.190963	-0.242224	0.273709	-0.510588	0.13817	-0.115987	0.370337	-0.332836	-0.447455	0.285056	-0.648314	0.00114224	-0.105361	-0.299413	0.0383985	0.052186	0.145618	-0.381009	-0.0120015	1.31161	1.52651	0.257694	-0.321143	0.255029	1.79524	1.89191
2.02	-0.118947	-0.0888863	0.0161233	-0.172165	1.25605	-0.669395	0.257083	-0.188717	-0.278464	0.240378	-0.498257	0.125288	-0.116078	0.398294	-0.336006	-0.463605	0.272172	-0.634854	-0.0114157	-0.105264	-0.289957	0.0458758	0.0425685	0.128607	-0.378385	-0.00985218	1.30755	1.52575	0.254341	-0.318403	0.257016	1.79506	1.89278
2.03	-0.133236	-0.0912383	0.0238614	-0.173915	1.25931	-0.671578	0.261719	-0.187874	-0.317578	0.206208	-0.485742	0.109286	-0.116168	0.419711	-0.336927	-0.480008	0.258383	-0.62262	-0.0213755	-0.105168	-0.283024	0.051295	0.033523	0.111149	-0.375826	-0.00809033	1.30697	1.52374	0.251092	-0.317737	0.257318	1.79517	1.89365
2.04	-0.143576	-0.0919543	0.0300996	-0.175467	1.26187	-0.673687	0.262904	-0.188296	-0.355017	0.174588	-0.473366	0.0919867	-0.116259	0.434633	-0.336137	-0.493592	0.245744	-0.612212	-0.0286719	-0.105071	-0.279625	0.0545881	0.0254548	0.0939376	-0.373173	-0.00718563	1.30943	1.52092	0.248227	-0.318835	0.255615	1.79559	1.89452
2.05	-0.149929	-0.0911741	0.0344815	-0.176844	1.26375	-0.675681	0.261665	-0.189736	-0.386489	0.147986	-0.46149	0.0752551	-0.116349	0.443604	-0.334234	-0.50214	0.235806	-0.603899	-0.0336993	-0.104975	-0.280083	0.0558678	0.0186725	0.0775135	-0.370333	-0.00742743	1.31433	1.51765	0.245864	-0.321333	0.251798	1.79638	1.89539
2.06	-0.15271	-0.0891223	0.0367535	-0.178072	1.26493	-0.677534	0.259088	-0.191886	-0.408492	0.127835	-0.450495	0.0606922	-0.11644	0.447505	-0.331784	-0.504537	0.229501	-0.597553	-0.0372336	-0.104878	-0.284105	0.0553766	0.0133714	0.0622342	-0.367267	-0.00892975	1.32106	1.51413	0.243976	-0.324845	0.245962	1.79754	1.89626
2.07	-0.152652	-0.0860749	0.0367848	-0.179173	1.26536	-0.679228	0.256192	-0.194443	-0.418767	0.114614	-0.440728	0.0494446	-0.11653	0.447384	-0.329251	-0.500789	0.227135	-0.592702	-0.0402531	-0.104782	-0.29094	0.0534284	0.00962383	0.0482688	-0.363985	-0.0116565	1.32897	1.51038	0.242428	-0.328999	0.238371	1.79908	1.89713
2.08	-0.150648	-0.0823244	0.0345697	-0.180163	1.26499	-0.680758	0.253871	-0.197154	-0.416547	0.108065	-0.432429	0.0421299	-0.116621	0.444304	-0.326943	-0.491835	0.228451	-0.588643	-0.043718	-0.104686	-0.299559	0.0503566	0.00738208	0.0356199	-0.360525	-0.015461	1.33753	1.50627	0.241015	-0.333468	0.229405	1.80098	1.89799
2.09	-0.14762	-0.0781279	0.0302199	-0.181042	1.26375	-0.682126	0.252857	-0.19984	-0.402565	0.107467	-0.425645	0.0388519	-0.116711	0.439249	-0.325007	-0.479239	0.23277	-0.584594	-0.0483666	-0.104589	-0.308832	0.0464803	0.00649804	0.0241562	-0.356938	-0.0201367	1.34628	1.5017	0.239503	-0.337986	0.219498	1.80326	1.89886
2.1	-0.144416	-0.0736778	0.0239492	-0.181807	1.26155	-0.683358	0.253699	-0.202407	-0.378833	0.111892	-0.420186	0.0392772	-0.116802	0.43304	-0.323444	-0.464809	0.239159	-0.579837	-0.0545707	-0.104493	-0.317691	0.0420788	0.00675464	0.0136466	-0.353277	-0.0254713	1.35493	1.49669	0.237658	-0.342356	0.209086	1.80596	1.89973
